<?xml version="1.0" standalone="no"?>
<!DOCTYPE svg PUBLIC "-//W3C//DTD SVG 20010904//EN"
 "http://www.w3.org/TR/2001/REC-SVG-20010904/DTD/svg10.dtd">
<svg version="1.0" xmlns="http://www.w3.org/2000/svg"
 width="796.000000pt" height="796.000000pt" viewBox="0 0 796.000000 796.000000"
 preserveAspectRatio="xMidYMid meet">

<g transform="translate(0.000000,796.000000) scale(0.100000,-0.100000)"
fill="#000000" stroke="none">
<path d="M0 3980 l0 -3980 3980 0 3980 0 0 3980 0 3980 -3980 0 -3980 0 0
-3980z m3838 3454 c18 -14 39 -41 47 -60 14 -35 14 -37 -16 -80 -16 -24 -34
-44 -39 -44 -4 0 -15 -2 -23 -6 -10 -4 -16 5 -21 33 -8 47 -48 94 -105 123
-43 21 -43 22 -21 37 55 39 124 37 178 -3z m-136 -71 c41 -24 78 -78 78 -113
0 -32 -37 -71 -49 -52 -5 9 -11 5 -19 -13 -14 -30 -48 -45 -105 -45 -64 -1
-116 -24 -214 -95 -19 -14 -33 10 -33 56 0 47 35 99 84 123 55 27 170 33 220
12 53 -22 57 -14 4 10 -31 14 -65 19 -130 19 -68 0 -88 3 -88 14 0 26 43 83
74 97 41 19 136 12 178 -13z m598 -5 c52 -36 72 -82 68 -158 -3 -67 -43 -180
-64 -180 -6 0 -21 11 -34 25 -20 21 -23 33 -21 98 2 87 -18 125 -91 172 -26
17 -47 33 -47 36 -2 14 48 28 100 28 42 1 64 -4 89 -21z m-137 -66 c69 -49
102 -147 60 -177 -14 -10 -22 -6 -52 25 -40 42 -141 80 -211 80 -47 0 -57 13
-35 46 47 72 158 84 238 26z m291 -40 c10 -9 24 -29 32 -44 46 -88 -33 -256
-129 -278 -53 -12 -55 12 -11 122 30 75 37 107 38 164 l1 72 25 -10 c14 -5 33
-17 44 -26z m-398 -67 c34 -9 73 -27 88 -39 27 -21 28 -22 9 -45 -21 -26 -20
-26 -230 -23 -103 1 -153 6 -153 13 0 32 35 80 73 99 49 25 114 23 213 -5z
m-418 -89 c3 -23 -4 -35 -39 -65 -87 -73 -146 -139 -164 -179 -11 -23 -22 -42
-25 -42 -12 0 -36 34 -49 67 -24 60 21 139 116 205 52 35 86 47 128 45 25 -2
31 -7 33 -31z m936 -91 c9 -48 -8 -106 -41 -138 -24 -22 -98 -57 -122 -57 -4
0 -22 21 -40 46 -33 47 -31 63 7 64 23 0 101 81 113 118 19 61 29 66 54 32 13
-17 26 -47 29 -65z m-531 46 c7 -7 7 -17 -1 -35 -20 -45 -54 -58 -199 -73
-151 -15 -153 -15 -153 44 0 37 29 62 88 74 51 11 251 4 265 -10z m201 -52
c37 -44 34 -96 -15 -242 -22 -67 -44 -126 -49 -131 -16 -16 -59 22 -70 62 -10
32 -8 51 15 132 40 142 66 210 80 210 7 0 25 -14 39 -31z m-80 -6 c-4 -16 -13
-40 -20 -55 -8 -15 -14 -32 -14 -37 0 -26 -43 -121 -55 -121 -21 0 -55 50 -55
81 0 28 3 33 51 69 15 11 34 35 43 55 11 23 24 35 37 35 16 0 18 -5 13 -27z
m-544 -2 c17 -32 11 -74 -14 -112 -33 -48 -46 -101 -46 -185 0 -39 -3 -73 -6
-77 -11 -10 -80 30 -97 57 -25 38 -22 128 6 185 21 44 118 151 137 151 5 0 14
-9 20 -19z m320 -71 c0 -41 -29 -79 -67 -89 -32 -9 -45 -7 -89 14 -45 22 -73
50 -60 62 5 5 153 30 189 32 21 1 27 -4 27 -19z m-277 -54 c8 -9 16 -45 20
-88 6 -72 39 -173 71 -220 22 -31 20 -35 -13 -43 -38 -8 -90 14 -123 53 -78
93 -35 378 45 298z m655 -2 c28 -19 52 -65 52 -98 0 -38 -92 -306 -105 -306
-6 0 -23 13 -38 28 -22 23 -27 38 -27 77 0 27 6 67 14 90 8 22 27 82 43 133
15 50 30 92 33 92 3 0 16 -7 28 -16z m208 -66 c-7 -36 -46 -98 -60 -98 -6 0
-23 12 -38 27 -29 28 -37 61 -15 67 6 3 32 11 57 19 63 20 63 20 56 -15z
m-754 -17 c14 -11 42 -50 64 -87 22 -37 66 -91 99 -121 57 -52 59 -55 41 -69
-12 -8 -43 -14 -74 -14 -51 0 -56 2 -101 49 -69 70 -125 223 -94 254 12 13 40
7 65 -12z m194 -57 c24 -20 53 -55 63 -78 10 -22 30 -52 45 -65 38 -35 35 -55
-8 -48 -54 9 -103 36 -151 83 -76 73 -105 137 -67 147 34 10 74 -3 118 -39z
m41 -10 c-10 -10 -37 16 -37 34 0 13 4 12 22 -5 12 -13 19 -25 15 -29z m401
-10 c26 -18 52 -65 52 -93 0 -21 -45 -185 -56 -202 -3 -5 -30 -9 -60 -9 -65 0
-64 -2 -28 125 46 161 57 195 63 195 4 0 17 -7 29 -16z m-900 -137 c38 -12
101 -62 90 -72 -2 -3 -35 -11 -74 -20 -38 -8 -86 -19 -106 -24 -38 -9 -38 -9
-38 23 1 39 20 75 51 92 30 16 25 16 77 1z m1031 -66 c7 -16 11 -44 9 -62 -3
-34 -3 -34 -60 -37 -50 -3 -58 -1 -58 15 0 21 17 87 32 125 l10 28 28 -20 c15
-11 33 -33 39 -49z m-879 -49 c0 -15 -5 -33 -12 -40 -15 -15 -298 -17 -298 -2
0 5 12 12 28 16 15 3 45 11 67 16 38 10 175 35 203 37 7 1 12 -11 12 -27z
m2782 -109 c26 -23 22 -38 -20 -86 -123 -136 -283 -414 -375 -652 -129 -331
-209 -657 -262 -1060 -16 -125 -45 -476 -45 -551 0 -57 -12 -74 -51 -74 -24 0
-32 9 -61 68 -109 221 -456 408 -968 521 -102 23 -356 61 -404 61 l-29 0 6
-75 c9 -105 45 -299 69 -370 11 -33 36 -91 55 -128 36 -72 37 -97 4 -97 -56 0
-144 232 -177 465 -8 61 -18 211 -21 335 -5 198 -4 227 10 239 9 7 24 11 34 9
16 -3 18 -17 18 -143 l0 -140 40 -3 c74 -6 399 -61 505 -86 165 -38 467 -143
525 -183 36 -24 42 -16 49 75 4 48 13 130 21 182 8 52 19 138 25 190 24 204
85 491 136 650 50 154 92 247 182 403 l50 87 -1739 0 c-956 0 -1739 -3 -1739
-6 0 -4 18 -35 40 -70 176 -279 285 -673 350 -1269 21 -187 30 -255 35 -255 1
0 38 16 81 36 216 99 515 180 827 225 l159 22 -2 131 c-1 72 -2 137 -1 144 2
18 48 15 55 -4 10 -25 7 -329 -5 -458 -24 -274 -123 -576 -189 -576 -25 0 -37
27 -22 49 29 40 75 153 98 241 23 90 62 366 52 375 -5 5 -347 -43 -359 -51 -4
-2 -49 -13 -101 -23 -209 -44 -519 -166 -666 -265 -94 -63 -186 -159 -225
-236 -29 -57 -36 -65 -64 -68 -23 -2 -34 2 -41 15 -5 10 -12 97 -16 193 -7
201 -44 508 -86 725 -112 580 -303 1047 -558 1367 -63 79 -69 92 -52 118 13
21 910 28 3100 23 1575 -4 1736 -5 1752 -20z m-1397 -423 c4 -11 18 -26 33
-34 25 -13 25 -14 4 -20 -12 -4 -28 -19 -35 -33 l-14 -25 -16 25 c-9 14 -26
29 -39 32 -22 7 -22 8 4 21 15 8 29 23 33 34 3 11 10 20 15 20 5 0 12 -9 15
-20z m-315 -115 c0 -9 11 -21 25 -27 14 -6 25 -14 25 -18 0 -4 -11 -12 -25
-18 -14 -6 -25 -18 -25 -27 0 -8 -7 -15 -15 -15 -8 0 -15 7 -15 15 0 9 -11 21
-25 27 -30 14 -32 24 -4 31 11 3 23 15 26 26 6 24 33 29 33 6z m-1455 -25 c18
-8 18 -9 -6 -9 -37 -1 -138 -38 -179 -65 -216 -143 -241 -458 -52 -627 124
-110 294 -134 440 -64 55 26 140 105 180 165 l23 35 -6 -30 c-27 -123 -134
-252 -256 -310 -247 -117 -526 -21 -646 221 l-38 78 0 136 c0 134 0 135 35
205 42 82 132 178 208 218 85 46 242 71 297 47z m1754 -277 c20 -17 22 -22 9
-23 -9 0 -26 -12 -38 -27 -17 -22 -23 -25 -30 -13 -6 8 -10 18 -10 22 0 4 -9
10 -20 13 -25 8 -26 25 -1 32 10 2 24 17 31 31 11 25 12 26 22 7 6 -11 23 -30
37 -42z m239 -8 c6 -14 18 -25 27 -25 8 0 15 -7 15 -15 0 -8 -7 -15 -15 -15
-9 0 -21 -11 -27 -25 -14 -30 -24 -32 -31 -4 -3 11 -15 23 -26 26 -12 3 -21
11 -21 18 0 7 9 15 21 18 11 3 23 15 26 26 7 28 17 26 31 -4z m-1254 -141 c3
-9 6 -423 6 -920 0 -797 2 -904 15 -904 13 0 15 89 15 738 0 826 4 965 29 960
14 -3 17 -50 22 -423 7 -468 14 -536 74 -720 130 -400 429 -697 715 -710 58
-2 65 -5 71 -26 9 -34 1 -95 -23 -164 -26 -74 -34 -85 -65 -85 -90 0 -404 244
-499 389 -21 32 -45 67 -51 77 -8 12 -7 4 2 -19 56 -147 293 -365 490 -453 36
-16 65 -32 65 -36 0 -14 -53 -68 -67 -68 -31 0 -138 67 -253 158 -132 105
-302 294 -329 367 l-11 30 6 -35 c11 -65 75 -152 203 -281 69 -69 170 -158
224 -198 53 -39 97 -75 97 -79 0 -12 -49 -56 -95 -85 -22 -14 -80 -40 -130
-57 -150 -54 -218 -83 -261 -112 -23 -16 -49 -28 -57 -28 -20 0 -106 96 -123
137 -8 18 -14 55 -14 83 0 47 -1 50 -26 50 l-27 0 5 -69 c6 -79 26 -120 96
-193 l44 -46 -42 -66 -43 -66 -89 0 c-75 0 -90 3 -95 18 -4 9 -22 39 -40 65
l-33 49 46 44 c60 59 94 132 94 207 0 50 -2 57 -20 57 -17 0 -20 -7 -20 -47 0
-27 -7 -61 -15 -77 -23 -45 -87 -125 -111 -141 -20 -13 -25 -11 -62 16 -39 28
-177 89 -237 103 -46 12 -190 83 -224 112 -42 35 -39 56 12 90 138 93 351 297
423 404 24 36 63 123 47 105 -5 -5 -27 -37 -48 -69 -53 -79 -212 -238 -321
-320 -92 -68 -191 -126 -217 -126 -8 0 -27 16 -41 35 l-27 34 83 42 c153 77
283 179 379 297 53 66 107 152 95 152 -3 0 -19 -21 -36 -47 -97 -143 -264
-287 -433 -374 -84 -43 -107 -38 -134 32 -25 62 -39 154 -30 191 6 21 12 23
75 25 136 3 299 90 434 231 161 169 259 364 320 637 20 93 22 131 25 520 2
231 5 430 8 443 3 12 11 22 19 22 22 0 26 -147 26 -947 0 -663 2 -753 15 -753
13 0 15 107 15 901 0 601 3 907 10 920 13 23 36 25 44 3z m1044 -244 l30 -30
-29 -29 -29 -29 -31 30 c-23 24 -27 33 -17 39 7 5 16 9 20 9 4 0 10 9 13 20 8
26 8 26 43 -10z m-260 -165 c6 -14 18 -25 27 -25 8 0 15 -7 15 -15 0 -8 -7
-15 -15 -15 -9 0 -21 -11 -27 -25 -6 -14 -14 -25 -18 -25 -4 0 -12 11 -18 25
-6 14 -18 25 -27 25 -8 0 -15 7 -15 15 0 8 7 15 15 15 9 0 21 11 27 25 6 14
14 25 18 25 4 0 12 -11 18 -25z m-418 -130 c0 -9 11 -21 25 -27 14 -6 25 -14
25 -18 0 -4 -11 -12 -25 -18 -14 -6 -25 -18 -25 -27 0 -8 -7 -15 -15 -15 -8 0
-15 6 -15 14 0 7 -12 22 -27 31 l-27 18 23 9 c13 4 25 17 28 28 6 23 33 27 33
5z m9 -301 c6 -5 -21 -144 -29 -149 -4 -3 -22 0 -39 6 -33 12 -37 21 -44 106
l-4 53 56 -6 c31 -4 58 -8 60 -10z m-2169 -48 c0 -56 -9 -65 -62 -66 -28 0
-24 61 7 94 39 43 55 35 55 -28z m1496 2 c-3 -29 -6 -61 -6 -70 0 -22 -75 -45
-95 -28 -10 9 -25 79 -26 125 0 13 36 23 90 24 l44 1 -7 -52z m-302 -71 c25
-41 48 -80 50 -88 4 -9 -14 -24 -54 -43 -33 -17 -61 -28 -63 -25 -16 17 -86
194 -80 200 7 7 62 23 94 28 4 1 28 -32 53 -72z m1279 66 c35 -5 38 -8 32 -32
-3 -14 -14 -42 -24 -61 -10 -19 -23 -52 -30 -72 -19 -57 -32 -62 -85 -34 -25
13 -51 26 -58 29 -14 5 -4 25 59 125 34 54 40 56 106 45z m-2463 -112 c0 -22
3 -46 6 -54 4 -12 -14 -20 -84 -36 -112 -26 -112 -26 -112 6 0 67 68 118 163
122 25 1 27 -2 27 -38z m2839 -2 l44 -19 -20 -23 c-10 -12 -63 -73 -117 -134
-108 -124 -99 -121 -171 -60 l-39 34 109 117 c118 127 108 122 194 85z m-1963
-95 c55 -58 100 -109 102 -113 3 -8 -107 -106 -112 -100 -1 2 -51 62 -109 132
-59 71 -107 132 -107 136 0 9 88 49 111 50 9 1 61 -47 115 -105z m2749 74 c25
-30 27 -38 22 -93 -6 -62 -70 -272 -89 -290 -7 -7 -9 33 -4 140 13 291 18 307
71 243z m-3613 -115 c3 -27 3 -53 1 -59 -4 -11 -169 -51 -253 -61 l-52 -6 7
34 c14 69 53 93 195 123 100 21 97 22 102 -31z m3718 -56 c30 -49 29 -57 -34
-267 -15 -46 -30 -88 -35 -93 -14 -14 -47 9 -65 48 -19 40 -14 78 29 230 38
132 42 138 65 125 12 -6 30 -26 40 -43z m-522 -3 c12 -8 22 -19 22 -23 0 -8
-68 -67 -140 -121 -18 -14 -79 -62 -134 -107 -55 -46 -104 -83 -108 -83 -4 0
-25 23 -47 52 l-40 52 27 19 c76 52 369 225 382 226 9 1 26 -6 38 -15z m-2615
-124 c88 -52 161 -99 164 -106 4 -11 -56 -113 -67 -114 -3 0 -26 17 -52 38
-25 20 -107 84 -181 142 -75 58 -136 109 -137 115 0 5 12 19 28 31 26 22 28
22 57 5 17 -10 101 -60 188 -111z m3735 99 c-3 -9 -117 -63 -198 -94 -19 -7
-80 -33 -135 -58 -55 -25 -103 -42 -107 -38 -4 3 -9 21 -10 39 l-3 34 140 45
c185 59 298 90 308 85 4 -2 7 -8 5 -13z m-4918 -68 c165 -55 175 -60 172 -82
-5 -49 -8 -49 -109 -7 -54 22 -123 51 -153 63 -95 39 -110 48 -110 67 0 10 6
18 13 18 6 0 91 -27 187 -59z m590 34 c0 -36 -24 -78 -52 -93 -26 -13 -208
-57 -280 -68 l-48 -6 0 30 c0 36 38 85 77 100 16 6 78 20 138 31 61 11 119 22
130 24 11 3 23 5 28 6 4 0 7 -10 7 -24z m3811 -74 c24 -25 29 -38 29 -79 0
-46 -44 -208 -75 -280 -13 -28 -18 -31 -35 -22 -25 13 -50 61 -50 95 0 59 74
315 92 315 5 0 23 -13 39 -29z m-3911 -92 c0 -59 -23 -81 -115 -106 -91 -25
-250 -52 -259 -43 -15 15 4 63 39 96 28 26 48 34 107 44 40 7 100 18 133 25
93 19 95 19 95 -16z m3653 -86 c9 -26 15 -48 14 -49 -1 -1 -45 -20 -97 -42
-126 -53 -393 -167 -452 -194 -27 -12 -49 -20 -51 -17 -7 8 -47 122 -45 124 2
2 39 17 83 35 44 18 100 40 125 51 38 15 248 93 345 127 54 19 62 15 78 -35z
m351 20 c46 -46 46 -72 -3 -238 -11 -38 -28 -89 -37 -112 -14 -38 -18 -42 -35
-32 -26 13 -59 68 -59 96 0 20 17 84 67 256 9 31 22 57 29 57 6 0 23 -12 38
-27z m-3756 -44 c206 -67 456 -151 459 -153 6 -5 -31 -113 -43 -125 -13 -15
-65 3 -304 104 -47 20 -101 43 -120 50 -66 25 -253 105 -258 109 -7 8 52 76
66 76 7 0 97 -27 200 -61z m-342 -51 c-11 -55 -32 -75 -98 -97 -63 -20 -222
-51 -267 -51 -20 0 -22 3 -16 28 18 75 58 99 220 128 171 31 169 31 161 -8z
m4207 -78 c10 -15 17 -47 17 -71 0 -56 -78 -299 -95 -299 -7 0 -25 14 -39 31
-32 38 -34 84 -6 180 66 230 58 209 84 198 12 -6 30 -23 39 -39z m-4303 -70
c0 -37 -24 -72 -63 -92 -33 -16 -262 -68 -304 -68 -20 0 -15 44 10 80 27 41
84 63 217 83 134 21 140 21 140 -3z m4389 -77 c37 -45 39 -77 10 -171 -37
-121 -71 -212 -79 -212 -4 0 -22 17 -40 37 -31 34 -32 39 -26 92 4 30 10 59
15 65 5 6 16 45 26 86 21 88 42 140 54 140 5 0 23 -17 40 -37z m-4479 -73 c0
-34 -32 -81 -67 -98 -46 -24 -303 -76 -315 -64 -11 11 7 70 28 93 39 43 354
104 354 69z m4210 -64 c0 -11 -56 -25 -280 -66 -52 -9 -133 -25 -180 -34 -47
-10 -141 -28 -209 -42 -68 -14 -128 -21 -132 -17 -4 4 -10 33 -14 64 l-7 56
109 7 c59 4 187 14 283 22 223 19 413 31 423 26 4 -2 7 -9 7 -16z m-3715 -11
c165 -9 323 -16 350 -18 l50 -2 -3 -64 c-1 -35 -4 -67 -7 -69 -6 -6 -79 7
-732 130 -56 11 -74 23 -58 40 3 3 27 4 53 2 26 -2 182 -11 347 -19z m4073 3
c21 -24 42 -69 42 -93 0 -21 -66 -78 -107 -93 -20 -6 -38 -10 -40 -8 -2 2 6
39 17 82 38 143 47 155 88 112z m-4668 -83 c0 -35 -30 -84 -60 -100 -17 -9
-75 -25 -128 -35 -53 -11 -115 -24 -137 -30 -22 -5 -43 -10 -47 -10 -13 0 -9
50 7 80 24 47 74 65 255 95 103 17 110 17 110 0z m-441 -64 c16 -10 6 -67 -17
-93 -14 -17 -18 -15 -61 24 -25 23 -48 46 -49 50 -9 21 98 37 127 19z m5310
-25 c68 -36 141 -152 144 -231 2 -38 1 -40 -30 -43 -29 -3 -36 2 -65 44 -59
85 -99 123 -164 155 -63 31 -64 32 -47 52 35 38 111 49 162 23z m206 -28 c76
-72 91 -318 19 -318 -32 0 -50 31 -64 109 -14 78 -43 153 -75 195 -14 18 -25
36 -25 39 0 4 25 7 55 7 49 0 60 -4 90 -32z m-5616 -17 c22 -18 41 -37 41 -43
0 -17 -44 -108 -52 -108 -5 0 -8 4 -8 9 0 5 -17 20 -37 33 -33 20 -49 23 -125
21 l-87 -2 10 27 c26 68 85 104 160 100 45 -3 64 -10 98 -37z m446 -21 c10
-16 -22 -77 -49 -95 -26 -17 -194 -59 -285 -71 -58 -7 -62 0 -37 61 20 47 47
61 161 84 170 34 200 37 210 21z m4820 -21 c51 -15 78 -31 117 -69 51 -50 58
-73 26 -94 -14 -8 -29 -6 -65 7 -27 10 -66 26 -88 34 -22 8 -77 18 -122 20
-46 3 -83 8 -83 10 0 12 35 70 49 80 16 13 65 30 87 32 7 1 42 -8 79 -20z
m501 -20 c39 -23 54 -57 54 -118 0 -70 -27 -137 -75 -187 -23 -24 -37 -44 -31
-44 21 0 96 94 115 144 10 28 25 51 32 51 21 0 59 -65 59 -101 0 -46 -16 -84
-53 -122 -43 -46 -78 -62 -129 -62 -52 0 -64 7 -77 43 -9 22 -8 29 4 33 13 5
12 10 -4 30 -18 23 -18 25 12 111 28 83 29 93 21 166 -5 43 -7 80 -5 83 7 6
42 -6 77 -27z m-5818 -68 c18 -12 32 -29 32 -38 0 -24 -31 -42 -70 -43 -57 -1
-178 -36 -221 -65 -57 -38 -71 -22 -49 57 14 50 61 95 113 107 70 17 158 9
195 -18z m4242 14 c128 -21 396 -61 568 -86 l154 -23 -7 -35 c-4 -20 -10 -39
-13 -43 -4 -4 -131 2 -282 12 -151 11 -283 20 -292 20 -10 0 -36 16 -57 36
-51 45 -94 49 -128 10 -19 -22 -30 -27 -61 -24 l-37 3 4 65 c2 36 5 68 8 73 6
10 44 8 143 -8z m-2654 -65 c7 -36 13 -68 13 -71 1 -4 -20 -9 -45 -11 -42 -3
-47 -1 -60 25 -18 34 -55 50 -88 38 -12 -5 -38 -27 -57 -49 l-34 -39 -100 -7
c-55 -4 -161 -13 -235 -21 -74 -8 -171 -17 -215 -20 l-80 -6 -16 36 c-9 19
-14 37 -10 39 10 6 137 28 641 111 85 14 173 29 195 34 73 16 78 13 91 -59z
m-1189 4 c8 -21 -21 -80 -49 -98 -25 -16 -115 -39 -243 -62 -44 -8 -81 -14
-82 -14 -12 0 1 73 17 92 25 32 54 44 165 64 50 9 108 20 130 24 22 4 44 8 48
9 4 0 10 -6 14 -15z m4936 -10 c43 -21 46 -36 12 -68 -21 -20 -39 -24 -122
-29 -89 -4 -122 -13 -215 -52 -15 -6 -18 -2 -18 29 0 68 36 110 120 137 41 14
181 3 223 -17z m-4822 -26 c16 -61 5 -158 -27 -229 -29 -64 -48 -73 -79 -39
-29 32 -20 143 16 188 10 13 23 40 29 60 6 20 13 43 15 50 9 27 35 11 46 -30z
m-545 -50 c-8 -41 -23 -57 -71 -78 -72 -32 -115 -100 -115 -185 0 -25 -4 -45
-9 -45 -5 0 -23 11 -40 25 -39 33 -65 103 -57 150 8 40 55 99 97 121 39 20
127 43 168 43 32 1 33 0 27 -31z m1471 15 c2 -6 -11 -25 -29 -41 l-32 -31 27
-10 c36 -14 67 -67 67 -116 1 -35 2 -38 14 -22 16 21 36 22 36 3 0 -8 20 -36
44 -63 31 -33 40 -49 30 -51 -20 -5 -17 -20 6 -27 21 -7 28 -25 9 -25 -5 0
-41 7 -78 16 -77 17 -114 38 -93 52 9 6 1 13 -28 25 -22 8 -43 24 -46 34 -3
10 -10 26 -16 37 -13 25 5 44 27 26 22 -18 19 2 -5 42 -24 39 -25 78 -5 118
22 43 63 62 72 33z m2849 -14 c24 -25 29 -38 28 -76 -1 -25 -5 -48 -11 -51
-13 -9 -33 -47 -33 -63 0 -8 8 -5 20 6 26 24 33 16 24 -29 -6 -37 -21 -50 -79
-73 -16 -6 -24 -12 -17 -12 6 -1 12 -8 12 -16 0 -14 -62 -37 -142 -51 -40 -7
-54 10 -18 21 11 3 20 11 20 17 0 5 -7 8 -15 4 -24 -9 -18 8 15 39 16 15 36
43 45 61 18 38 29 42 44 17 9 -16 10 -15 11 7 1 32 32 101 54 119 15 13 19 13
27 0 6 -10 9 -7 9 13 0 17 -9 33 -27 46 -17 13 -24 25 -20 36 9 23 19 20 53
-15z m-3687 -15 c17 -14 36 -43 42 -65 11 -35 9 -46 -14 -107 -27 -67 -98
-161 -140 -183 -17 -9 -23 -8 -34 7 -22 30 -15 65 32 159 28 55 48 110 51 140
10 87 14 90 63 49z m4861 -7 c0 -8 -11 -46 -25 -86 -37 -106 -26 -109 14 -4
19 48 37 91 40 95 3 4 23 1 44 -5 43 -13 53 -36 43 -92 -8 -43 -87 -200 -120
-240 l-26 -30 -19 25 c-24 30 -29 56 -19 95 6 21 4 31 -4 34 -7 2 -26 17 -42
33 -25 25 -28 34 -23 70 4 33 15 49 49 79 43 38 88 51 88 26z m-190 -35 c0
-39 -24 -69 -68 -83 -20 -6 -41 -15 -47 -19 -5 -4 -41 -10 -80 -12 -38 -3 -78
-8 -87 -13 -30 -12 -34 22 -7 52 55 58 158 100 257 102 29 1 32 -2 32 -27z
m-4970 -31 c0 -38 -35 -81 -66 -81 -14 0 -36 7 -50 16 -13 9 -44 17 -69 18
-40 1 -76 18 -64 30 3 3 47 12 98 20 52 9 96 18 99 21 3 3 16 5 29 5 19 0 23
-5 23 -29z m71 -34 c-8 -8 -11 -4 -11 14 0 33 14 47 18 19 2 -12 -1 -27 -7
-33z m-440 3 c-12 -79 -3 -166 22 -223 35 -75 35 -87 -3 -87 -95 0 -163 100
-146 215 6 38 16 58 47 88 45 46 87 49 80 7z m1979 21 c0 -5 9 -11 21 -14 11
-3 23 -15 26 -26 5 -20 6 -20 19 -4 12 17 15 17 51 -2 25 -13 39 -28 41 -44 3
-17 6 -20 12 -11 11 18 40 5 40 -18 0 -46 111 -104 250 -131 63 -13 204 -73
217 -94 4 -6 -16 2 -43 17 -62 35 -180 63 -314 77 -148 14 -180 24 -238 75
-61 53 -72 56 -37 9 42 -55 113 -83 235 -95 208 -20 336 -58 426 -127 43 -32
81 -92 80 -125 -1 -14 3 -24 8 -21 5 4 6 -1 2 -12 -4 -10 -2 -21 3 -24 10 -7
-9 -81 -20 -81 -4 0 -10 15 -13 34 -19 99 -144 184 -222 151 -43 -18 -53 -3
-20 30 28 28 21 31 -28 11 -38 -16 -76 -64 -85 -109 -6 -29 -7 -29 -24 -13
-16 16 -18 16 -27 -10 -6 -14 -8 -42 -4 -60 5 -30 9 -33 30 -28 14 4 24 2 24
-4 0 -6 9 -8 21 -5 30 8 21 -27 -12 -46 -33 -19 -71 -9 -112 30 -21 21 -26 29
-13 25 16 -6 17 -4 6 9 -9 11 -22 14 -42 10 -28 -7 -28 -7 -28 46 0 40 5 58
21 75 l21 23 -21 -6 c-31 -8 -27 20 7 53 l27 26 -25 -7 c-14 -4 -38 -19 -53
-34 -26 -24 -35 -26 -128 -27 -77 -2 -103 1 -115 13 -8 9 -12 18 -9 21 3 3 11
0 17 -6 18 -18 28 -15 28 7 0 11 5 23 10 26 6 3 10 16 10 28 0 27 37 61 68 62
12 1 21 5 20 10 -2 4 -47 7 -101 6 -128 -3 -287 17 -287 36 0 22 27 26 91 16
67 -11 80 1 18 17 -71 19 -87 31 -114 85 -38 74 -32 91 30 88 28 -1 62 -2 78
-2 31 -1 77 -27 77 -45 0 -25 104 -105 118 -92 4 4 -2 12 -13 18 -35 20 -97
87 -90 98 4 6 1 17 -5 25 -10 12 -10 22 0 45 11 26 18 30 51 30 22 0 39 -4 39
-9z m1940 -21 c10 -23 10 -33 0 -45 -6 -8 -9 -19 -5 -25 7 -11 -30 -51 -80
-87 -16 -12 -27 -25 -23 -29 13 -12 62 28 135 111 16 18 33 26 55 26 18 0 56
1 83 2 l50 2 -3 -35 c-1 -19 -9 -41 -17 -50 -8 -9 -15 -21 -15 -27 0 -19 -40
-46 -87 -58 -70 -18 -66 -34 6 -22 64 10 91 6 91 -16 0 -18 -145 -37 -289 -37
-65 0 -110 -4 -107 -9 3 -5 14 -7 24 -4 23 6 75 -39 67 -59 -3 -8 1 -21 10
-28 8 -7 15 -21 15 -31 0 -20 15 -25 25 -9 3 6 11 10 17 10 6 0 4 -8 -5 -18
-14 -15 -34 -18 -113 -19 -90 -1 -97 0 -127 26 -18 15 -43 31 -56 34 l-24 6
27 -28 c32 -33 34 -56 5 -48 -20 5 -20 5 -4 -14 24 -26 31 -117 10 -125 -8 -4
-22 -1 -30 6 -12 10 -15 10 -16 -1 -1 -8 -2 -21 -3 -29 -1 -19 -63 -60 -91
-60 -31 0 -70 33 -62 52 4 11 17 15 42 14 39 -2 50 15 43 70 -3 25 -7 29 -30
26 -24 -2 -28 1 -28 22 0 45 -79 117 -127 116 -14 -1 -12 -4 8 -15 26 -14 45
-43 34 -53 -3 -3 -21 2 -40 11 -32 15 -39 15 -83 1 -26 -9 -60 -28 -75 -42
-29 -27 -76 -113 -78 -141 0 -14 -26 42 -28 62 -2 12 17 8 22 -5 2 -7 3 -6 2
2 -2 8 -6 24 -11 34 -5 14 -4 17 4 12 7 -4 12 -3 12 3 0 5 -4 13 -10 16 -5 3
-10 11 -10 16 0 6 5 7 10 4 6 -3 10 -3 11 2 0 4 2 19 3 33 2 14 23 42 52 68
27 25 49 48 49 52 0 28 119 81 235 105 110 23 200 70 223 118 14 28 23 36 37
32 13 -4 19 1 24 19 7 29 68 55 89 37 9 -7 16 -5 25 10 7 10 19 19 27 19 8 0
15 5 15 10 0 6 17 10 39 10 33 0 40 -4 51 -30z m-3838 -47 c9 -10 31 -50 51
-89 19 -39 53 -99 76 -134 23 -36 40 -69 38 -75 -2 -5 -21 -11 -43 -13 -46 -4
-93 18 -123 58 -45 61 -87 199 -75 246 8 29 53 33 76 7z m5617 -9 c34 -43 36
-86 8 -148 -30 -65 -114 -158 -159 -177 -27 -11 -32 -10 -45 7 -19 26 -10 57
43 137 25 37 59 99 77 137 18 39 37 70 44 70 6 0 21 -12 32 -26z m-419 7 c0
-9 -41 -23 -48 -16 -2 2 -1 8 3 14 8 13 45 15 45 2z m-4502 -123 c-4 -53 -8
-63 -49 -104 -100 -102 -262 -132 -234 -43 4 10 30 35 60 54 63 42 112 94 151
160 l28 48 24 -28 c21 -25 24 -36 20 -87z m5252 62 c0 -50 -19 -89 -60 -124
-25 -21 -42 -26 -85 -26 -50 0 -54 2 -74 36 -12 19 -21 51 -21 70 0 33 1 34
28 27 53 -15 114 -5 157 26 22 16 43 30 48 30 4 1 7 -17 7 -39z m-5773 -2 c18
-18 33 -27 33 -21 0 6 15 16 34 23 61 20 124 -23 117 -82 -1 -15 3 -36 9 -48
8 -16 8 -25 -3 -41 -14 -20 -16 -19 -54 23 -22 24 -55 59 -73 78 l-32 35 23
-35 c13 -19 42 -59 66 -88 24 -30 43 -57 42 -60 0 -4 -13 -18 -30 -31 -38 -29
-71 -22 -114 24 -42 46 -124 185 -131 224 -6 31 -6 31 37 31 35 0 49 -6 76
-32z m686 -1 c18 -8 81 -65 141 -127 99 -104 107 -115 90 -127 -26 -19 -94
-16 -130 6 -34 20 -204 212 -204 229 0 9 40 29 63 31 4 1 22 -5 40 -12z m195
-6 c36 -19 224 -212 230 -236 2 -7 -14 -17 -36 -22 -52 -13 -101 3 -144 48
-53 56 -168 193 -168 200 0 8 46 27 68 28 7 1 29 -8 50 -18z m175 5 c34 -14
237 -222 237 -242 0 -16 -24 -24 -76 -24 -40 0 -51 6 -96 48 -53 49 -183 201
-177 205 12 9 56 26 67 26 7 1 27 -5 45 -13z m3315 -5 c35 -18 232 -222 232
-240 0 -5 -17 -13 -39 -18 -49 -13 -104 4 -140 44 -58 62 -171 197 -171 204 0
8 46 27 68 28 7 1 29 -8 50 -18z m712 4 c21 -11 30 -23 30 -40 0 -33 18 -76
42 -102 19 -21 19 -59 -1 -51 -16 6 -170 152 -176 165 -3 9 7 19 28 28 41 18
42 18 77 0z m-797 -92 c41 -43 89 -95 106 -115 31 -35 31 -37 12 -47 -28 -15
-87 -14 -120 4 -16 8 -61 51 -100 95 l-71 81 31 39 c39 48 40 47 142 -57z
m283 78 c35 -21 209 -216 209 -233 0 -21 -62 -32 -105 -19 -38 11 -64 37 -197
196 -49 57 -43 73 27 74 19 1 49 -7 66 -18z m182 5 c25 -13 213 -214 220 -236
4 -12 -40 -30 -75 -30 -43 0 -88 36 -184 148 -84 97 -90 107 -73 119 23 17 78
17 112 -1z m159 3 c15 -6 62 -43 103 -82 41 -40 92 -87 113 -104 20 -18 37
-37 37 -43 0 -29 -103 -40 -148 -16 -39 21 -222 220 -211 230 32 26 65 31 106
15z m-4238 -148 c39 -43 71 -83 71 -89 0 -14 -25 -22 -74 -22 -59 0 -82 19
-90 78 -7 51 1 112 14 112 4 0 40 -35 79 -79z m3500 -10 c34 -38 61 -74 61
-80 0 -16 -61 -29 -99 -20 -20 5 -53 27 -82 55 -50 49 -58 64 -36 64 6 0 26
11 42 25 17 13 35 24 41 25 7 0 39 -31 73 -69z m1326 29 c40 -78 0 -176 -88
-218 -72 -34 -91 -36 -142 -13 -38 17 -46 25 -43 43 2 16 12 24 36 29 60 12
128 71 185 162 22 35 33 34 52 -3z m-4113 -41 c32 -7 60 -21 75 -37 23 -25 23
-27 7 -39 -24 -17 -88 -16 -123 2 -28 14 -111 101 -111 115 0 5 23 -1 51 -11
28 -11 74 -24 101 -30z m2632 -21 c39 -45 37 -53 -10 -67 -40 -11 -99 9 -138
48 -41 42 -40 43 101 60 6 0 28 -18 47 -41z m-3498 -3 c33 -133 -136 -223
-310 -165 -37 12 -66 27 -66 35 0 7 14 25 31 39 26 22 40 26 92 26 81 0 121
12 182 54 61 42 63 42 71 11z m3253 -44 c14 -10 44 -24 66 -30 23 -6 88 -47
150 -94 61 -45 187 -141 280 -212 94 -70 268 -202 387 -293 218 -164 235 -178
224 -189 -12 -12 -178 79 -396 217 -22 14 -68 43 -102 64 -109 69 -379 247
-498 330 -183 127 -230 166 -230 192 0 20 6 23 43 27 23 2 44 4 45 5 2 1 16
-7 31 -17z m-3945 -26 c17 -13 17 -15 -14 -53 -36 -45 -54 -108 -44 -158 7
-38 4 -40 -36 -19 -35 18 -80 91 -80 129 0 26 21 76 42 104 14 16 108 15 132
-3z m1779 5 c22 0 27 -5 27 -24 0 -18 -21 -39 -92 -92 -292 -216 -1079 -714
-1127 -714 -33 0 6 37 152 147 185 138 678 511 781 590 38 29 79 53 90 53 12
0 39 11 61 25 22 14 49 23 60 20 11 -3 32 -5 48 -5z m-1707 -40 c8 0 14 -8 14
-18 0 -15 6 -18 29 -14 32 4 52 -12 101 -80 30 -43 81 -80 143 -103 26 -10 47
-23 47 -30 0 -35 -86 -68 -143 -55 -69 15 -145 98 -168 183 -6 21 -13 37 -16
34 -12 -12 29 -117 63 -161 29 -38 34 -50 23 -57 -41 -26 -124 2 -165 57 -24
31 -29 48 -32 109 -4 69 -3 73 28 109 20 22 39 35 47 32 8 -4 21 -6 29 -6z
m4946 -40 c-12 -93 -15 -110 -19 -110 -29 0 -87 76 -81 107 3 19 39 32 78 30
20 -2 24 -7 22 -27z m227 -14 c32 -50 122 -133 179 -164 l54 -29 -35 -22 c-24
-14 -51 -21 -87 -21 -64 0 -103 26 -155 103 -29 42 -35 61 -35 102 0 28 5 56
11 62 17 17 47 4 68 -31z m-93 -1 c-11 -57 4 -104 51 -161 l43 -54 -25 -10
c-48 -18 -105 -1 -152 46 -42 42 -43 45 -43 106 1 76 13 95 66 101 21 2 45 4
53 5 10 2 12 -7 7 -33z m225 16 c42 -32 87 -51 123 -51 37 0 119 31 130 49 14
22 26 10 26 -27 0 -79 -72 -152 -150 -152 -54 0 -131 41 -179 96 -54 62 -66
83 -49 88 7 3 20 7 28 9 29 10 47 7 71 -12z m-5002 -32 c70 -22 111 -30 156
-28 53 2 60 0 57 -16 -10 -56 -66 -95 -135 -95 -118 0 -279 104 -238 154 19
23 52 20 160 -15z m1661 -142 c0 -7 -46 -57 -102 -111 -57 -54 -184 -179 -284
-278 -140 -139 -183 -176 -192 -166 -10 13 9 40 384 526 l95 123 50 -42 c27
-22 49 -46 49 -52z m1806 -113 c87 -113 198 -256 246 -317 67 -86 84 -114 76
-125 -9 -10 -45 20 -172 145 -89 87 -219 215 -290 285 l-130 126 50 46 c27 25
52 45 55 46 3 0 77 -93 165 -206z m-1056 188 c0 -4 -5 -13 -10 -18 -6 -6 -17
-50 -24 -98 -17 -104 -50 -163 -115 -206 -85 -57 -198 -35 -235 45 -28 60 -28
70 3 99 32 30 71 37 96 16 22 -18 19 -37 -10 -62 -29 -25 -31 -44 -8 -70 41
-46 120 -4 130 70 6 44 22 58 24 20 1 -16 4 -12 9 12 5 20 4 42 -2 53 -5 10
-7 26 -4 34 6 14 9 14 26 -2 11 -10 24 -32 29 -49 8 -27 9 -22 10 32 1 34 5
62 10 62 5 0 18 16 30 35 19 32 41 47 41 27z m109 -30 c8 -18 21 -32 28 -32 9
0 13 -15 13 -47 l1 -48 17 28 c27 44 67 33 43 -12 -6 -11 -6 -37 -1 -67 9 -47
9 -47 7 -8 -3 55 19 47 26 -9 10 -74 82 -112 127 -67 11 11 20 24 20 29 0 18
-12 41 -22 41 -10 0 -38 25 -38 34 0 16 36 36 65 36 24 0 39 -7 53 -25 11 -13
23 -21 27 -17 9 8 -1 -29 -20 -73 -29 -69 -98 -101 -180 -83 -34 7 -58 22 -95
58 -50 51 -54 62 -90 230 -4 19 -11 43 -15 54 -14 34 19 13 34 -22z m-31 -62
c0 -22 -1 -22 -8 5 -4 17 -8 39 -8 50 0 16 2 15 8 -5 4 -14 8 -36 8 -50z m-68
38 c0 -16 -3 -19 -11 -11 -6 6 -8 16 -5 22 11 17 16 13 16 -11z m-18 -60 c-9
-9 -12 -7 -12 12 0 19 3 21 12 12 9 -9 9 -15 0 -24z m75 -125 c24 -73 61 -138
91 -163 l35 -28 -24 -34 c-35 -50 -131 -168 -136 -168 -6 0 -21 18 -100 122
-29 37 -53 70 -53 73 0 3 18 23 40 46 22 23 48 65 60 97 12 30 23 59 26 64 10
15 55 8 61 -9z m-16 -723 c15 -9 19 -22 19 -70 0 -33 -2 -60 -4 -60 -2 0 -11
-3 -20 -6 -12 -5 -15 5 -18 48 -2 39 -7 53 -18 53 -13 0 -15 -25 -18 -154 -2
-100 1 -158 8 -165 30 -30 43 101 14 143 -20 29 -6 46 30 37 26 -6 26 -7 26
-106 0 -88 -2 -100 -19 -110 -31 -16 -69 -12 -91 10 -18 18 -20 33 -20 185 0
152 2 167 20 185 22 22 60 26 91 10z m349 -10 c18 -18 20 -33 20 -185 0 -152
-2 -167 -20 -185 -24 -24 -77 -26 -102 -3 -16 14 -18 34 -18 187 0 94 4 176 8
182 19 29 85 31 112 4z m331 10 c27 -15 26 -75 -1 -90 -18 -10 -20 -8 -20 19
0 16 -6 31 -14 34 -41 16 -34 -57 14 -145 34 -63 40 -82 40 -135 0 -51 -3 -64
-19 -73 -53 -28 -111 5 -111 63 0 34 15 57 37 57 8 0 13 -14 13 -39 0 -42 16
-63 31 -40 17 27 9 61 -36 152 -51 104 -57 155 -25 187 22 22 60 26 91 10z
m-1345 -135 c12 -71 25 -161 29 -198 7 -68 7 -69 -16 -65 -13 1 -25 10 -26 18
-15 126 -27 200 -33 200 -4 0 -10 -33 -14 -72 -4 -40 -9 -88 -13 -106 -6 -34
-27 -52 -43 -36 -8 8 16 209 40 333 5 29 10 56 10 58 0 2 10 3 22 1 21 -3 24
-14 44 -133z m332 122 c17 -20 16 -387 -1 -387 -27 0 -37 25 -37 97 0 58 -3
73 -15 73 -12 0 -15 -16 -15 -80 0 -63 -3 -82 -15 -87 -9 -3 -18 -3 -21 0 -4
4 -8 335 -4 390 0 13 97 8 108 -6z"/>
<path d="M2303 6273 c-379 -2 -563 -7 -563 -14 0 -5 17 -33 38 -62 322 -441
550 -1188 598 -1955 l7 -113 32 38 c18 21 69 65 113 98 70 51 80 63 77 85 -3
14 -9 81 -15 150 -6 69 -17 166 -25 215 -8 50 -21 146 -30 214 -9 68 -18 127
-20 132 -3 4 -12 45 -21 91 -52 281 -142 520 -277 738 -23 36 -49 76 -59 89
-21 27 -23 62 -6 79 9 9 437 12 1863 12 1781 0 1853 -1 1868 -18 10 -10 17
-22 17 -27 0 -4 -28 -51 -62 -104 -162 -251 -267 -543 -323 -900 -9 -58 -18
-107 -20 -111 -2 -3 -13 -89 -25 -191 -11 -101 -25 -213 -30 -249 -5 -36 -10
-84 -10 -107 0 -38 4 -44 53 -79 28 -21 77 -62 108 -92 l56 -53 8 83 c25 299
73 624 125 848 95 418 279 853 473 1123 27 37 47 70 45 73 -6 6 -3260 12
-3995 7z"/>
<path d="M3922 3439 c-57 -10 -180 -67 -202 -94 -8 -10 6 -5 36 12 99 58 126
67 220 71 132 6 195 -20 308 -127 32 -30 44 -38 36 -23 -24 47 -81 99 -142
130 -71 36 -165 48 -256 31z"/>
<path d="M3824 3350 c-81 -41 -229 -164 -218 -181 3 -5 22 -16 42 -25 20 -8
70 -38 109 -65 94 -64 177 -93 258 -87 71 6 158 37 200 73 27 23 25 23 -27 -6
-32 -17 -58 -29 -58 -26 0 3 36 31 80 62 44 31 84 64 89 73 24 42 -54 138
-151 187 -65 32 -78 35 -158 35 -82 0 -93 -2 -166 -40z m218 -26 c21 -4 35
-10 33 -14 -3 -4 3 -10 13 -12 33 -9 20 -103 -20 -141 -10 -10 -23 -15 -28
-12 -6 3 -10 2 -10 -3 0 -13 -49 -22 -56 -10 -3 4 -9 6 -14 3 -12 -8 -60 5
-60 16 0 5 -9 18 -21 30 -28 28 -19 44 24 44 65 0 78 49 17 62 -17 3 -29 11
-27 17 7 21 80 31 149 20z m-227 -91 c11 -47 55 -113 88 -134 94 -57 222 13
242 131 4 22 10 40 15 40 5 0 25 -23 46 -52 l38 -51 -44 -39 c-56 -48 -135
-78 -205 -78 -84 0 -204 47 -278 109 -17 14 -15 18 29 62 26 27 51 46 55 44 4
-3 10 -17 14 -32z"/>
<path d="M3130 2741 c0 -4 11 -18 25 -31 14 -13 25 -20 25 -15 0 4 -11 18 -25
31 -14 13 -25 20 -25 15z"/>
<path d="M3255 2521 c-25 -6 -20 -9 37 -15 65 -8 88 -4 88 15 0 10 -80 10
-125 0z"/>
<path d="M3398 2483 c7 -3 16 -2 19 1 4 3 -2 6 -13 5 -11 0 -14 -3 -6 -6z"/>
<path d="M3618 2483 c7 -3 16 -2 19 1 4 3 -2 6 -13 5 -11 0 -14 -3 -6 -6z"/>
<path d="M3384 2445 c-18 -14 -18 -14 3 -15 23 0 39 15 25 24 -5 3 -18 -1 -28
-9z"/>
<path d="M3505 2430 c-22 -11 -31 -17 -20 -14 11 4 40 13 65 20 31 9 37 13 20
13 -14 0 -43 -8 -65 -19z"/>
<path d="M3625 2443 c11 -2 40 -11 65 -19 24 -8 40 -10 35 -5 -15 13 -75 31
-99 30 -20 -1 -20 -2 -1 -6z"/>
<path d="M3429 2373 c-13 -16 -12 -17 4 -4 16 13 21 21 13 21 -2 0 -10 -8 -17
-17z"/>
<path d="M3710 2386 c0 -2 7 -7 16 -10 8 -3 12 -2 9 4 -6 10 -25 14 -25 6z"/>
<path d="M3376 2284 c-4 -9 -4 -19 -1 -22 2 -3 7 3 11 12 4 9 4 19 1 22 -2 3
-7 -3 -11 -12z"/>
<path d="M4825 2720 c-10 -11 -16 -22 -13 -25 3 -3 13 4 23 15 10 11 16 22 13
25 -3 3 -13 -4 -23 -15z"/>
<path d="M4859 2664 c-48 -52 -102 -75 -201 -85 -159 -18 -297 -47 -354 -76
-70 -35 -62 -41 13 -9 68 28 185 52 328 67 59 6 116 18 140 29 41 20 113 85
104 95 -3 3 -16 -7 -30 -21z"/>
<path d="M4610 2520 c0 -18 28 -23 88 -14 51 7 54 8 27 15 -47 11 -115 10
-115 -1z"/>
<path d="M4358 2483 c7 -3 16 -2 19 1 4 3 -2 6 -13 5 -11 0 -14 -3 -6 -6z"/>
<path d="M4578 2483 c7 -3 16 -2 19 1 4 3 -2 6 -13 5 -11 0 -14 -3 -6 -6z"/>
<path d="M4572 2448 c3 -7 13 -15 24 -17 16 -3 17 -1 5 13 -16 19 -34 21 -29
4z"/>
<path d="M4297 2435 c-21 -7 -42 -17 -45 -21 -4 -4 2 -4 13 1 11 4 43 13 70
20 29 8 40 13 25 14 -14 0 -42 -6 -63 -14z"/>
<path d="M4408 2443 c6 -2 18 -2 25 0 6 3 1 5 -13 5 -14 0 -19 -2 -12 -5z"/>
<path d="M4460 2433 c8 -3 24 -10 35 -15 20 -9 20 -9 1 6 -11 9 -27 16 -35 15
-14 0 -14 -1 -1 -6z"/>
<path d="M4520 2402 c0 -12 19 -26 26 -19 2 2 -2 10 -11 17 -9 8 -15 8 -15 2z"/>
<path d="M4292 1238 c-8 -8 -12 -56 -12 -154 0 -115 3 -144 15 -154 30 -25 36
3 33 160 -3 151 -9 175 -36 148z"/>
<path d="M3610 1170 c0 -56 3 -70 15 -70 12 0 15 14 15 70 0 56 -3 70 -15 70
-12 0 -15 -14 -15 -70z"/>
</g>
</svg>
